<svg id="svg" version="1.1" xmlns="http://www.w3.org/2000/svg" xmlns:xlink="http://www.w3.org/1999/xlink" width="400" height="89.46236559139786" viewBox="0, 0, 400,89.46236559139786"><g id="svgg"><path id="path0" d="M143.167 43.583 L 143.167 87.167 151.570 87.167 C 156.191 87.167,160.073 87.128,160.195 87.082 C 160.373 87.013,160.406 86.185,160.362 82.832 L 160.308 78.667 160.803 78.667 C 161.368 78.667,161.536 78.946,161.395 79.652 C 161.315 80.051,161.364 80.154,161.683 80.255 C 162.118 80.393,162.622 80.833,162.345 80.833 C 162.247 80.833,162.167 80.913,162.167 81.010 C 162.167 81.107,162.235 81.144,162.318 81.093 C 162.659 80.882,163.000 81.214,163.000 81.754 C 163.000 82.522,163.149 82.833,163.518 82.833 C 163.716 82.833,163.833 82.950,163.833 83.149 C 163.833 83.322,163.956 83.512,164.107 83.569 C 164.346 83.661,164.352 83.637,164.151 83.379 C 163.935 83.099,163.940 83.099,164.253 83.363 C 164.435 83.517,164.656 83.643,164.746 83.642 C 164.835 83.642,164.935 83.741,164.967 83.862 C 165.006 84.009,164.966 83.999,164.849 83.833 C 164.751 83.696,164.671 83.666,164.669 83.766 C 164.666 84.019,165.247 84.667,165.478 84.667 C 165.582 84.667,165.667 84.812,165.667 84.989 C 165.667 85.350,166.066 85.532,166.624 85.425 C 167.071 85.339,167.525 85.741,167.387 86.101 C 167.325 86.263,167.374 86.346,167.519 86.326 C 168.521 86.186,169.000 86.337,169.003 86.792 C 169.005 87.149,169.041 87.195,169.167 87.000 C 169.274 86.833,169.329 86.819,169.331 86.958 C 169.332 87.094,169.596 87.167,170.083 87.167 C 170.812 87.167,170.916 87.252,170.846 87.792 C 170.826 87.943,171.184 88.000,172.163 88.000 L 173.506 88.000 173.402 88.417 L 173.297 88.833 180.979 88.833 L 188.660 88.833 188.763 88.424 C 188.859 88.042,188.949 88.011,190.058 87.965 C 191.150 87.921,191.254 87.885,191.303 87.542 C 191.354 87.182,191.657 87.086,192.625 87.122 C 192.740 87.126,192.833 86.989,192.833 86.818 C 192.833 86.496,193.107 86.386,194.167 86.284 C 194.615 86.241,194.749 86.154,194.744 85.906 C 194.737 85.488,194.953 85.347,195.459 85.439 C 196.100 85.555,196.500 85.356,196.500 84.921 C 196.500 84.611,196.569 84.549,196.840 84.620 C 197.073 84.681,197.165 84.636,197.132 84.480 C 197.105 84.353,197.187 84.272,197.313 84.299 C 197.468 84.332,197.514 84.240,197.456 84.016 C 197.388 83.758,197.472 83.663,197.840 83.582 C 198.191 83.505,198.294 83.397,198.248 83.156 C 198.198 82.896,198.281 82.833,198.676 82.833 C 199.088 82.833,199.167 82.767,199.167 82.417 C 199.167 82.086,199.251 82.000,199.572 82.000 C 199.891 82.000,199.989 81.902,200.031 81.542 C 200.060 81.290,200.177 81.074,200.292 81.063 C 200.406 81.051,200.575 81.032,200.667 81.021 C 200.758 81.009,200.833 80.868,200.833 80.707 C 200.833 80.545,200.991 80.315,201.184 80.194 C 201.377 80.074,201.485 80.056,201.424 80.154 C 201.363 80.253,201.393 80.333,201.490 80.333 C 201.587 80.333,201.667 80.151,201.667 79.928 C 201.667 79.635,201.770 79.508,202.042 79.470 C 202.368 79.424,202.423 79.304,202.467 78.542 C 202.517 77.669,202.622 77.561,203.346 77.637 C 203.399 77.643,203.430 77.483,203.414 77.282 C 203.393 77.011,203.497 76.895,203.818 76.832 C 204.200 76.758,204.256 76.658,204.300 75.968 C 204.343 75.310,204.408 75.179,204.717 75.135 C 205.026 75.092,205.091 74.961,205.133 74.308 C 205.176 73.643,205.242 73.517,205.592 73.429 C 205.979 73.332,206.000 73.264,206.000 72.080 C 206.000 70.861,206.009 70.833,206.417 70.833 C 206.826 70.833,206.833 70.809,206.833 69.528 C 206.833 68.282,206.850 68.224,207.208 68.237 C 207.641 68.252,207.622 68.352,207.647 65.887 C 207.666 64.098,207.682 64.021,208.035 63.970 C 208.258 63.938,208.439 63.765,208.493 63.532 C 208.634 62.933,208.557 50.393,208.411 50.158 C 208.327 50.022,208.349 49.990,208.474 50.067 C 208.604 50.148,208.667 50.017,208.667 49.666 C 208.667 48.971,208.395 48.500,207.994 48.500 C 207.686 48.500,207.667 48.376,207.667 46.417 L 207.667 44.333 207.250 44.333 C 206.845 44.333,206.833 44.300,206.833 43.167 C 206.833 42.346,206.772 41.999,206.625 41.997 C 206.485 41.996,206.498 41.939,206.667 41.823 C 206.864 41.688,206.829 41.662,206.500 41.701 C 206.094 41.749,206.081 41.717,206.000 40.500 C 205.924 39.360,205.884 39.245,205.542 39.197 C 205.175 39.145,205.118 38.977,205.122 37.958 C 205.123 37.798,205.054 37.667,204.968 37.667 C 204.883 37.667,204.863 37.587,204.924 37.489 C 204.990 37.382,204.910 37.332,204.725 37.364 C 204.468 37.408,204.403 37.279,204.333 36.583 C 204.256 35.815,204.213 35.746,203.776 35.696 C 203.400 35.653,203.319 35.574,203.385 35.321 C 203.431 35.144,203.401 34.991,203.318 34.979 C 203.235 34.968,203.092 34.940,203.000 34.917 C 202.908 34.894,202.758 34.866,202.667 34.854 C 202.575 34.843,202.500 34.458,202.500 34.000 C 202.500 33.222,202.472 33.167,202.083 33.167 C 201.684 33.167,201.577 32.970,201.654 32.375 C 201.670 32.256,201.500 32.167,201.257 32.167 C 200.857 32.167,200.758 32.025,200.821 31.542 C 200.836 31.423,200.666 31.333,200.424 31.333 C 200.083 31.333,200.000 31.252,200.000 30.917 C 200.000 30.583,199.917 30.500,199.583 30.500 C 199.250 30.500,199.167 30.417,199.167 30.083 C 199.167 29.750,199.083 29.667,198.750 29.667 C 198.417 29.667,198.333 29.583,198.333 29.250 C 198.333 28.920,198.249 28.833,197.928 28.833 C 197.635 28.833,197.508 28.730,197.470 28.458 C 197.432 28.190,197.287 28.068,196.958 28.031 C 196.605 27.990,196.500 27.889,196.500 27.590 C 196.500 27.149,196.222 27.000,195.403 27.000 C 194.902 27.000,194.833 26.948,194.833 26.571 C 194.833 26.191,194.770 26.145,194.292 26.171 C 193.336 26.223,193.191 26.176,193.137 25.792 C 193.090 25.465,192.971 25.410,192.208 25.366 C 191.398 25.320,191.333 25.285,191.333 24.896 C 191.333 24.563,191.256 24.482,190.958 24.507 C 189.981 24.586,189.690 24.502,189.637 24.125 C 189.585 23.762,189.516 23.748,187.504 23.699 C 185.444 23.649,185.095 23.547,185.284 23.055 C 185.355 22.869,184.554 22.831,180.685 22.839 L 176.000 22.848 176.000 23.252 L 176.000 23.657 173.875 23.703 C 171.814 23.749,171.748 23.761,171.697 24.125 C 171.655 24.419,171.530 24.504,171.113 24.518 C 169.991 24.555,169.917 24.581,169.863 24.958 C 169.813 25.313,169.513 25.429,168.871 25.345 C 168.598 25.309,168.167 25.740,168.167 26.048 C 168.167 26.213,168.038 26.262,167.753 26.208 C 167.098 26.083,166.500 26.298,166.500 26.658 C 166.500 26.862,166.365 26.996,166.125 27.030 C 165.859 27.068,165.735 27.214,165.698 27.532 C 165.658 27.878,165.545 27.992,165.198 28.032 C 164.880 28.068,164.735 28.192,164.697 28.458 C 164.658 28.730,164.532 28.833,164.238 28.833 C 163.917 28.833,163.833 28.920,163.833 29.250 C 163.833 29.583,163.750 29.667,163.417 29.667 C 163.083 29.667,163.000 29.750,163.000 30.083 C 163.000 30.313,162.921 30.500,162.823 30.500 C 162.726 30.500,162.693 30.575,162.750 30.667 C 162.807 30.758,162.732 30.833,162.583 30.833 C 162.416 30.833,162.358 30.754,162.431 30.625 C 162.519 30.469,162.490 30.471,162.318 30.632 C 162.120 30.816,162.120 30.868,162.317 30.990 C 162.470 31.085,162.503 31.237,162.414 31.442 C 162.339 31.611,162.272 31.825,162.264 31.917 C 162.256 32.008,162.039 32.108,161.780 32.137 C 161.387 32.182,161.315 32.263,161.340 32.637 C 161.418 33.849,161.361 34.000,160.827 34.000 L 160.320 34.000 160.368 17.000 L 160.417 -0.000 151.792 -0.000 L 143.167 0.000 143.167 43.583 M321.337 0.625 C 321.403 2.049,321.288 33.726,321.218 33.458 C 321.172 33.279,320.982 33.167,320.728 33.167 C 320.500 33.167,320.357 33.097,320.410 33.012 C 320.462 32.926,320.429 32.809,320.336 32.752 C 320.243 32.694,320.167 32.572,320.167 32.480 C 320.167 32.389,320.253 32.367,320.359 32.433 C 320.478 32.506,320.506 32.478,320.433 32.359 C 320.367 32.253,320.131 32.167,319.907 32.167 C 319.530 32.167,319.500 32.106,319.500 31.333 C 319.500 30.508,319.024 30.096,318.777 30.708 C 318.731 30.823,318.687 30.627,318.680 30.272 C 318.668 29.677,318.635 29.634,318.250 29.707 C 317.884 29.777,317.833 29.729,317.833 29.310 C 317.833 28.913,317.764 28.833,317.417 28.833 C 317.086 28.833,317.000 28.749,317.000 28.428 C 317.000 28.110,316.902 28.011,316.544 27.969 C 316.184 27.928,316.087 27.829,316.086 27.500 C 316.084 27.199,315.993 27.083,315.757 27.083 C 315.548 27.083,315.396 26.934,315.331 26.666 C 315.254 26.348,315.125 26.252,314.782 26.257 C 314.401 26.262,314.333 26.193,314.333 25.798 C 314.333 25.352,314.300 25.333,313.512 25.333 C 312.786 25.333,312.684 25.289,312.637 24.958 C 312.588 24.615,312.483 24.579,311.386 24.535 C 310.295 24.490,310.183 24.453,310.136 24.118 C 310.086 23.772,309.990 23.747,308.500 23.706 C 306.620 23.653,306.500 23.620,306.613 23.187 C 306.699 22.859,306.625 22.854,301.558 22.885 L 296.417 22.917 296.363 23.292 C 296.312 23.652,296.245 23.667,294.655 23.667 C 293.001 23.667,293.000 23.667,293.000 24.083 C 293.000 24.460,292.932 24.501,292.292 24.514 C 290.482 24.551,290.419 24.566,290.363 24.958 C 290.310 25.331,289.918 25.440,288.917 25.359 C 288.642 25.337,288.628 25.361,288.833 25.497 C 289.015 25.617,289.024 25.662,288.865 25.664 C 288.745 25.666,288.694 25.742,288.751 25.835 C 288.872 26.031,288.181 26.327,287.875 26.210 C 287.760 26.167,287.666 26.233,287.664 26.357 C 287.662 26.538,287.631 26.536,287.510 26.344 C 287.333 26.065,286.833 26.371,286.833 26.759 C 286.833 26.879,286.665 27.001,286.458 27.030 C 286.190 27.068,286.068 27.213,286.031 27.542 C 285.987 27.924,285.898 28.000,285.497 28.000 C 285.215 28.000,284.946 28.121,284.847 28.292 C 284.685 28.569,284.677 28.569,284.672 28.292 C 284.669 28.131,284.583 28.000,284.481 28.000 C 284.376 28.000,284.333 28.147,284.382 28.336 C 284.477 28.698,284.079 29.013,283.697 28.876 C 283.576 28.833,283.491 28.900,283.508 29.024 C 283.577 29.522,283.482 29.667,283.083 29.667 C 282.753 29.667,282.667 29.751,282.667 30.072 C 282.667 30.391,282.568 30.489,282.208 30.531 C 281.842 30.573,281.751 30.668,281.754 31.004 C 281.757 31.344,281.677 31.423,281.337 31.420 C 280.992 31.417,280.917 31.496,280.917 31.860 C 280.917 32.104,280.848 32.367,280.765 32.444 C 280.677 32.525,280.663 32.496,280.733 32.375 C 280.863 32.149,280.681 32.108,280.264 32.268 C 280.119 32.323,280.001 32.492,280.003 32.643 C 280.005 32.881,280.026 32.884,280.167 32.667 C 280.305 32.452,280.329 32.457,280.331 32.702 C 280.332 32.860,280.181 33.070,279.995 33.169 C 279.809 33.269,279.702 33.440,279.758 33.550 C 279.813 33.660,279.750 33.619,279.619 33.458 C 279.266 33.028,279.214 33.089,279.214 33.934 C 279.214 34.719,278.982 35.047,278.544 34.879 C 278.405 34.825,278.321 34.882,278.341 35.019 C 278.411 35.522,278.316 35.667,277.917 35.667 C 277.478 35.667,277.355 35.905,277.708 36.069 C 277.875 36.147,277.875 36.186,277.708 36.264 C 277.594 36.317,277.500 36.536,277.500 36.750 C 277.500 37.374,277.317 37.741,277.140 37.472 C 276.907 37.119,276.500 37.785,276.500 38.520 C 276.500 39.040,276.438 39.152,276.125 39.197 C 275.773 39.247,275.750 39.329,275.753 40.521 C 275.755 41.556,275.709 41.786,275.506 41.756 C 275.044 41.688,274.833 42.121,274.833 43.136 C 274.833 43.692,274.724 44.338,274.584 44.606 C 274.356 45.043,274.335 45.052,274.334 44.708 C 274.334 44.502,274.258 44.333,274.167 44.333 C 274.063 44.333,274.000 45.272,274.000 46.815 C 274.000 49.255,273.994 49.299,273.622 49.392 L 273.245 49.487 273.243 56.250 L 273.241 63.012 273.620 63.108 C 274.008 63.205,274.121 64.371,274.026 67.296 C 274.006 67.913,274.059 68.031,274.418 68.167 C 274.771 68.301,274.836 68.438,274.854 69.079 C 274.866 69.494,274.894 69.890,274.918 69.958 C 274.942 70.027,275.016 70.252,275.084 70.458 C 275.151 70.665,275.309 70.833,275.436 70.833 C 275.669 70.833,275.725 71.139,275.671 72.121 C 275.629 72.900,275.810 73.333,276.178 73.333 C 276.426 73.333,276.504 73.457,276.519 73.875 C 276.530 74.173,276.556 74.492,276.577 74.583 C 276.598 74.675,276.627 74.837,276.641 74.943 C 276.655 75.049,276.808 75.098,276.981 75.053 C 277.397 74.944,277.528 75.192,277.528 76.090 C 277.528 76.719,277.578 76.833,277.857 76.833 C 278.038 76.833,278.140 76.758,278.083 76.667 C 278.027 76.575,278.060 76.500,278.157 76.500 C 278.261 76.500,278.333 76.907,278.333 77.500 C 278.333 78.448,278.354 78.500,278.739 78.500 C 279.058 78.500,279.156 78.598,279.197 78.958 C 279.235 79.287,279.356 79.432,279.625 79.470 C 279.896 79.508,280.000 79.635,280.000 79.928 C 280.000 80.246,280.087 80.333,280.405 80.333 C 280.661 80.333,280.849 80.453,280.914 80.658 C 280.971 80.837,281.163 81.029,281.342 81.086 C 281.547 81.151,281.667 81.339,281.667 81.595 C 281.667 81.934,281.748 82.000,282.167 82.000 C 282.589 82.000,282.667 82.065,282.667 82.417 C 282.667 82.747,282.751 82.833,283.072 82.833 C 283.365 82.833,283.492 82.937,283.530 83.208 C 283.568 83.475,283.714 83.598,284.033 83.635 C 284.336 83.670,284.453 83.762,284.393 83.919 C 284.260 84.266,284.505 84.594,284.685 84.309 C 284.797 84.133,284.829 84.148,284.831 84.375 C 284.832 84.535,284.908 84.667,285.000 84.667 C 285.092 84.667,285.167 84.777,285.167 84.911 C 285.167 85.250,285.741 85.523,286.258 85.429 C 286.616 85.365,286.719 85.433,286.857 85.828 C 287.006 86.256,287.099 86.306,287.755 86.306 C 288.604 86.306,288.833 86.411,288.834 86.802 C 288.834 87.001,288.993 87.094,289.375 87.120 C 290.323 87.183,290.766 87.336,290.493 87.505 C 290.297 87.625,290.293 87.693,290.467 87.867 C 290.641 88.041,290.710 88.034,290.838 87.832 C 290.943 87.666,290.996 87.653,290.997 87.792 C 290.999 87.942,291.392 88.000,292.399 88.000 C 293.783 88.000,294.211 88.191,293.911 88.675 C 293.861 88.757,297.175 88.825,301.494 88.830 L 309.167 88.839 309.167 88.420 C 309.167 88.009,309.192 88.000,310.413 88.000 C 311.604 88.000,311.665 87.981,311.765 87.583 C 311.859 87.208,311.953 87.167,312.704 87.167 C 313.505 87.167,313.536 87.150,313.459 86.750 C 313.391 86.394,313.443 86.331,313.815 86.317 C 315.015 86.272,315.083 86.249,315.135 85.885 C 315.172 85.630,315.322 85.505,315.634 85.468 C 315.958 85.431,316.105 85.301,316.166 85.000 C 316.222 84.722,316.361 84.583,316.583 84.583 C 316.767 84.583,316.926 84.490,316.938 84.375 C 316.949 84.260,316.968 84.054,316.979 83.917 C 316.992 83.767,317.167 83.667,317.417 83.667 C 317.766 83.667,317.833 83.588,317.833 83.181 C 317.833 82.763,317.890 82.702,318.250 82.742 C 318.590 82.779,318.667 82.715,318.667 82.394 C 318.667 82.085,318.756 82.000,319.083 82.000 C 319.476 82.000,319.500 81.948,319.500 81.106 C 319.500 80.229,319.508 80.214,319.944 80.298 C 320.310 80.368,320.369 80.333,320.279 80.099 C 320.210 79.919,320.236 79.856,320.350 79.927 C 320.469 80.000,320.510 79.822,320.473 79.394 C 320.421 78.799,320.452 78.746,320.875 78.697 L 321.333 78.645 321.366 82.114 C 321.396 85.258,321.423 86.372,321.480 86.948 C 321.495 87.097,323.579 87.149,330.000 87.161 L 338.500 87.177 338.500 43.588 L 338.500 0.000 329.904 -0.000 L 321.308 -0.000 321.337 0.625 M366.901 23.252 C 366.798 23.665,365.393 23.821,363.125 23.672 C 362.736 23.646,362.667 23.706,362.667 24.071 C 362.667 24.523,362.348 24.593,360.715 24.505 C 360.267 24.480,360.161 24.546,360.072 24.904 C 359.982 25.262,359.868 25.333,359.389 25.333 C 358.977 25.333,358.847 25.393,358.931 25.542 C 359.025 25.708,359.004 25.708,358.824 25.542 C 358.701 25.427,358.521 25.334,358.425 25.336 C 358.329 25.337,358.363 25.411,358.500 25.500 C 358.667 25.608,358.681 25.662,358.542 25.664 C 358.427 25.666,358.352 25.760,358.375 25.875 C 358.403 26.013,358.147 26.101,357.617 26.134 C 356.962 26.176,356.785 26.258,356.636 26.584 C 356.536 26.803,356.296 27.005,356.102 27.033 C 355.851 27.069,355.750 27.203,355.750 27.500 C 355.750 27.878,355.672 27.924,354.917 28.000 C 354.210 28.071,354.075 28.140,354.030 28.458 C 353.992 28.730,353.865 28.833,353.572 28.833 C 353.251 28.833,353.167 28.920,353.167 29.250 C 353.167 29.588,353.085 29.667,352.731 29.667 C 352.355 29.667,352.306 29.725,352.374 30.083 C 352.443 30.446,352.394 30.500,351.995 30.500 C 351.645 30.500,351.511 30.598,351.432 30.917 C 351.374 31.146,351.219 31.333,351.086 31.333 C 350.802 31.333,350.500 31.838,350.500 32.313 C 350.500 32.497,350.350 32.752,350.168 32.880 C 349.985 33.009,349.885 33.163,349.946 33.223 C 350.006 33.284,349.960 33.333,349.843 33.333 C 349.727 33.333,349.670 33.434,349.717 33.556 C 349.836 33.867,349.341 34.833,349.063 34.833 C 348.911 34.833,348.833 35.035,348.833 35.429 C 348.833 36.011,348.534 36.500,348.179 36.500 C 348.070 36.500,348.000 36.918,348.000 37.563 C 348.000 38.304,347.924 38.689,347.750 38.833 C 347.374 39.146,347.379 46.688,347.755 47.065 C 347.918 47.227,348.019 47.669,348.036 48.285 C 348.057 49.078,348.130 49.304,348.447 49.554 C 348.772 49.809,348.833 50.012,348.833 50.827 C 348.833 51.723,348.865 51.805,349.250 51.902 C 349.601 51.990,349.667 52.105,349.669 52.628 C 349.672 53.408,349.875 53.738,350.284 53.631 C 350.552 53.561,350.591 53.622,350.532 54.024 C 350.469 54.456,350.508 54.500,350.953 54.500 C 351.354 54.500,351.441 54.568,351.430 54.875 C 351.420 55.164,351.521 55.262,351.875 55.303 C 352.187 55.339,352.333 55.452,352.333 55.657 C 352.333 55.976,352.814 56.475,352.984 56.333 C 353.039 56.288,353.107 56.460,353.137 56.717 C 353.179 57.085,353.266 57.173,353.544 57.133 C 353.805 57.097,353.924 57.193,353.997 57.500 C 354.084 57.861,354.201 57.923,354.882 57.967 C 355.600 58.014,355.667 58.054,355.667 58.446 C 355.667 58.808,355.705 58.842,355.917 58.667 C 356.089 58.523,356.167 58.517,356.167 58.646 C 356.167 58.753,356.452 58.833,356.833 58.833 C 357.473 58.833,357.580 58.930,357.514 59.449 C 357.499 59.577,357.807 59.667,358.370 59.699 C 359.162 59.745,359.249 59.788,359.237 60.126 C 359.229 60.332,359.304 60.492,359.403 60.481 C 360.510 60.355,361.667 60.525,361.667 60.814 C 361.667 61.197,362.098 61.328,363.375 61.331 C 364.212 61.333,364.333 61.374,364.333 61.657 C 364.333 62.258,364.393 62.266,369.125 62.320 C 370.069 62.330,370.333 62.387,370.333 62.577 C 370.333 63.024,370.896 63.132,373.250 63.138 C 376.704 63.147,376.445 63.114,376.430 63.542 C 376.417 63.894,376.491 63.919,377.644 63.961 C 378.641 63.997,379.974 64.310,379.208 64.328 C 378.909 64.336,378.950 64.833,379.250 64.833 C 379.387 64.833,379.500 64.758,379.500 64.667 C 379.500 64.575,379.579 64.500,379.677 64.500 C 379.774 64.500,379.807 64.575,379.750 64.667 C 379.690 64.764,379.859 64.833,380.157 64.833 C 380.599 64.833,380.668 64.894,380.678 65.292 C 380.689 65.698,380.706 65.712,380.833 65.417 C 380.956 65.132,380.978 65.126,380.988 65.375 C 380.996 65.574,381.136 65.667,381.429 65.667 C 381.911 65.667,382.333 66.011,382.333 66.405 C 382.333 66.549,382.427 66.668,382.542 66.669 C 382.682 66.671,382.669 66.723,382.503 66.828 C 382.296 66.959,382.329 67.060,382.708 67.456 C 383.262 68.035,383.425 68.753,383.152 69.417 C 383.039 69.692,382.962 70.010,382.981 70.125 C 382.999 70.240,382.932 70.333,382.831 70.333 C 382.730 70.333,382.699 70.249,382.763 70.145 C 382.834 70.031,382.789 69.987,382.648 70.033 C 382.521 70.075,382.393 70.268,382.365 70.461 C 382.333 70.675,382.170 70.833,381.948 70.865 C 381.717 70.898,381.564 71.054,381.530 71.292 C 381.501 71.498,381.370 71.667,381.238 71.667 C 381.107 71.667,381.000 71.754,381.000 71.861 C 381.000 71.968,380.953 72.008,380.895 71.950 C 380.837 71.892,380.644 72.030,380.466 72.256 C 380.231 72.554,379.981 72.667,379.553 72.667 C 379.150 72.667,378.990 72.732,379.045 72.875 C 379.105 73.030,378.883 73.069,378.171 73.028 C 377.468 72.987,377.148 73.042,376.954 73.236 C 376.575 73.616,371.813 73.627,371.500 73.250 C 371.363 73.084,370.990 73.000,370.396 73.000 C 369.903 73.000,369.500 72.925,369.500 72.833 C 369.500 72.739,369.029 72.667,368.422 72.667 C 367.417 72.667,367.318 72.633,366.974 72.167 C 366.770 71.892,366.473 71.667,366.314 71.667 C 366.139 71.667,366.002 71.517,365.970 71.292 C 365.928 70.998,365.791 70.905,365.334 70.861 C 364.614 70.793,364.333 70.573,364.333 70.077 C 364.333 69.484,364.159 69.167,363.834 69.167 C 363.655 69.167,363.494 69.000,363.432 68.750 C 363.356 68.450,363.215 68.333,362.925 68.333 C 362.635 68.333,362.508 68.229,362.470 67.958 C 362.436 67.717,362.283 67.564,362.042 67.530 C 361.691 67.480,361.667 67.396,361.667 66.242 C 361.667 65.063,361.648 65.002,361.250 64.902 C 360.951 64.827,360.833 64.685,360.833 64.399 C 360.833 64.179,360.753 64.000,360.655 64.000 C 360.557 64.000,360.364 63.887,360.226 63.750 C 360.089 63.612,359.799 63.500,359.583 63.500 C 359.367 63.500,359.078 63.612,358.940 63.750 C 358.803 63.887,358.423 64.000,358.095 64.000 C 357.768 64.000,357.500 64.079,357.500 64.177 C 357.500 64.274,357.587 64.299,357.692 64.234 C 357.812 64.160,357.840 64.188,357.766 64.308 C 357.701 64.413,357.361 64.500,357.011 64.500 C 356.661 64.500,356.291 64.600,356.190 64.722 C 356.082 64.852,355.801 64.913,355.505 64.870 C 355.150 64.817,354.974 64.874,354.901 65.065 C 354.840 65.224,354.606 65.333,354.325 65.333 C 354.066 65.333,353.807 65.408,353.750 65.500 C 353.693 65.592,353.343 65.667,352.972 65.667 C 352.441 65.667,352.318 65.720,352.394 65.917 C 352.469 66.113,352.349 66.167,351.838 66.167 C 351.480 66.167,351.146 66.232,351.097 66.311 C 351.048 66.391,350.706 66.504,350.337 66.563 C 349.968 66.622,349.667 66.745,349.667 66.835 C 349.667 66.926,349.466 67.000,349.221 67.000 C 348.977 67.000,348.644 67.120,348.482 67.266 C 348.289 67.441,347.889 67.530,347.319 67.525 C 346.591 67.520,346.398 67.585,346.130 67.926 C 345.953 68.150,345.694 68.333,345.553 68.333 C 345.401 68.333,345.334 68.429,345.388 68.570 C 345.438 68.699,345.371 68.847,345.239 68.898 C 344.929 69.017,344.920 70.798,345.228 71.203 C 345.360 71.376,345.420 71.781,345.381 72.222 C 345.327 72.820,345.393 73.045,345.741 73.459 C 345.975 73.737,346.167 74.123,346.167 74.316 C 346.167 74.509,346.239 74.667,346.328 74.667 C 346.417 74.667,346.452 74.765,346.406 74.885 C 346.359 75.006,346.511 75.205,346.744 75.330 C 347.147 75.546,347.248 75.844,347.170 76.583 C 347.150 76.767,347.189 76.863,347.256 76.797 C 347.466 76.592,348.000 77.445,348.000 77.985 C 348.000 78.423,348.062 78.500,348.417 78.500 C 348.733 78.500,348.833 78.587,348.833 78.861 C 348.833 79.060,348.877 79.178,348.931 79.125 C 349.096 78.960,349.667 79.647,349.667 80.010 C 349.667 80.271,349.757 80.342,350.038 80.302 C 350.320 80.263,350.431 80.350,350.497 80.667 C 350.553 80.939,350.696 81.083,350.909 81.083 C 351.120 81.083,351.269 81.231,351.332 81.500 C 351.402 81.798,351.559 81.932,351.882 81.969 C 352.235 82.011,352.333 82.111,352.333 82.428 C 352.333 82.749,352.420 82.833,352.750 82.833 C 353.083 82.833,353.167 82.917,353.167 83.250 C 353.167 83.639,353.222 83.667,354.000 83.667 C 354.458 83.667,354.833 83.742,354.833 83.833 C 354.833 84.374,355.092 84.662,355.507 84.582 C 355.683 84.548,355.877 84.602,355.939 84.703 C 356.006 84.812,355.974 84.837,355.859 84.766 C 355.595 84.603,355.610 85.111,355.875 85.282 C 355.990 85.356,356.367 85.421,356.713 85.427 C 357.069 85.433,357.464 85.560,357.624 85.719 C 357.801 85.896,357.830 86.000,357.702 86.000 C 357.591 86.000,357.500 86.064,357.500 86.143 C 357.500 86.221,357.827 86.286,358.227 86.286 C 359.066 86.286,359.355 86.416,359.231 86.738 C 359.183 86.864,359.224 87.016,359.322 87.076 C 359.484 87.177,359.576 86.958,359.516 86.613 C 359.502 86.537,359.565 86.521,359.655 86.576 C 359.745 86.632,359.776 86.788,359.724 86.923 C 359.660 87.090,359.730 87.160,359.940 87.142 C 361.069 87.041,361.644 87.172,361.697 87.542 C 361.757 87.965,361.708 87.955,363.769 87.981 L 365.287 88.000 365.214 88.458 C 365.157 88.817,365.179 88.862,365.318 88.667 C 365.438 88.497,365.496 88.484,365.497 88.625 C 365.499 88.789,367.379 88.833,374.333 88.833 L 383.167 88.833 383.167 88.422 C 383.167 88.016,383.183 88.011,384.875 87.964 C 386.503 87.919,386.586 87.899,386.637 87.542 C 386.684 87.211,386.786 87.167,387.512 87.167 C 388.272 87.167,388.333 87.136,388.333 86.759 C 388.333 86.384,388.405 86.347,389.208 86.300 C 389.895 86.261,390.084 86.190,390.085 85.970 C 390.089 85.544,390.272 85.443,390.991 85.471 C 391.353 85.485,391.702 85.411,391.767 85.306 C 391.847 85.177,391.809 85.161,391.651 85.256 C 391.466 85.368,391.469 85.329,391.667 85.074 C 392.019 84.617,392.187 84.518,392.443 84.617 C 392.600 84.677,392.667 84.549,392.667 84.184 C 392.667 83.674,392.679 83.667,393.500 83.667 C 394.278 83.667,394.333 83.639,394.333 83.250 C 394.333 82.918,394.417 82.833,394.747 82.833 C 395.046 82.833,395.188 82.721,395.262 82.426 C 395.325 82.178,395.505 81.999,395.724 81.968 C 396.026 81.925,396.091 81.790,396.134 81.125 C 396.180 80.410,396.225 80.333,396.592 80.333 C 396.913 80.333,397.000 80.247,397.000 79.928 C 397.000 79.635,397.104 79.508,397.375 79.470 C 397.701 79.424,397.757 79.304,397.800 78.552 C 397.843 77.807,397.901 77.680,398.217 77.635 C 398.527 77.591,398.591 77.461,398.634 76.792 C 398.680 76.077,398.725 76.000,399.092 76.000 C 399.499 76.000,399.500 75.995,399.500 74.250 C 399.500 72.806,399.544 72.500,399.750 72.500 C 399.966 72.500,400.000 71.870,400.000 67.833 C 400.000 63.796,399.966 63.167,399.750 63.167 C 399.550 63.167,399.500 62.918,399.500 61.927 C 399.500 60.683,399.338 60.317,398.937 60.650 C 398.706 60.841,398.712 60.858,398.650 59.869 C 398.631 59.568,398.544 59.277,398.457 59.223 C 398.366 59.167,398.394 59.060,398.524 58.972 C 398.685 58.862,398.630 58.833,398.333 58.868 C 397.941 58.914,397.914 58.866,397.866 58.042 C 397.820 57.238,397.783 57.167,397.408 57.167 C 397.082 57.167,397.000 57.081,397.000 56.743 C 397.000 56.500,396.911 56.330,396.792 56.346 C 396.310 56.408,396.167 56.311,396.167 55.920 C 396.167 55.620,396.054 55.478,395.760 55.404 C 395.512 55.342,395.332 55.161,395.301 54.943 C 395.266 54.693,395.113 54.568,394.802 54.532 C 394.488 54.495,394.338 54.370,394.302 54.115 C 394.270 53.888,394.113 53.730,393.885 53.698 C 393.658 53.666,393.501 53.509,393.469 53.281 C 393.425 52.974,393.293 52.909,392.635 52.866 C 391.977 52.824,391.846 52.759,391.802 52.450 C 391.758 52.141,391.628 52.075,390.969 52.033 C 390.310 51.990,390.179 51.925,390.135 51.616 C 390.090 51.300,389.964 51.243,389.208 51.200 C 388.405 51.153,388.333 51.116,388.333 50.741 C 388.333 50.343,388.303 50.333,387.008 50.333 L 385.682 50.333 385.716 49.875 C 385.753 49.370,385.944 49.410,383.208 49.352 C 382.550 49.338,382.333 49.271,382.333 49.083 C 382.333 48.939,382.175 48.828,381.958 48.822 C 381.601 48.810,381.599 48.803,381.917 48.670 C 382.119 48.585,381.400 48.532,380.083 48.533 C 376.050 48.537,375.935 48.529,376.161 48.257 C 376.539 47.801,376.169 47.684,374.371 47.690 C 371.126 47.702,371.196 47.710,371.137 47.292 C 371.086 46.934,371.003 46.914,369.375 46.869 C 367.669 46.822,367.578 46.786,367.656 46.199 C 367.672 46.079,367.588 45.994,367.468 46.010 C 366.508 46.139,366.000 45.991,366.000 45.583 C 366.000 45.250,365.917 45.167,365.583 45.167 C 365.269 45.167,365.161 45.075,365.145 44.792 C 365.133 44.585,365.112 44.192,365.098 43.917 C 365.079 43.537,364.984 43.404,364.703 43.363 C 364.179 43.288,364.184 42.544,364.708 42.470 C 365.028 42.424,365.091 42.301,365.134 41.625 C 365.180 40.906,365.223 40.833,365.600 40.833 C 365.835 40.833,366.003 40.743,365.988 40.625 C 365.924 40.135,366.044 40.037,366.833 39.932 C 367.574 39.834,367.667 39.777,367.667 39.417 C 367.667 39.017,367.690 39.011,369.375 38.964 C 371.003 38.919,371.086 38.899,371.137 38.542 C 371.223 37.933,373.000 37.973,373.000 38.583 L 373.000 39.000 374.727 39.000 L 376.454 39.000 376.369 39.441 C 376.311 39.749,376.343 39.847,376.479 39.763 C 376.585 39.697,376.619 39.555,376.554 39.447 C 376.487 39.335,376.557 39.348,376.718 39.479 C 377.047 39.746,377.093 39.906,376.792 39.735 C 376.636 39.647,376.638 39.676,376.799 39.849 C 376.982 40.046,377.037 40.044,377.171 39.832 C 377.279 39.661,377.329 39.649,377.331 39.795 C 377.332 39.924,377.482 39.980,377.714 39.938 C 378.032 39.880,378.093 39.940,378.089 40.309 C 378.084 40.682,378.154 40.749,378.542 40.743 C 378.935 40.738,379.000 40.803,379.000 41.209 C 379.000 41.490,379.084 41.670,379.208 41.654 C 379.691 41.592,379.833 41.690,379.833 42.083 C 379.833 42.414,379.917 42.500,380.241 42.500 C 380.609 42.500,380.653 42.577,380.699 43.292 C 380.743 43.967,380.805 44.091,381.125 44.137 C 381.496 44.189,381.526 44.267,381.564 45.250 C 381.597 46.096,384.000 46.336,384.000 45.492 C 384.000 45.167,384.200 45.099,384.962 45.161 C 385.200 45.180,385.325 45.109,385.296 44.971 C 385.270 44.845,385.369 44.770,385.528 44.796 C 385.711 44.826,385.790 44.742,385.761 44.546 C 385.723 44.291,385.890 44.239,386.983 44.167 C 388.140 44.091,388.255 44.051,388.303 43.708 C 388.349 43.384,388.456 43.333,389.095 43.333 C 389.504 43.333,389.833 43.254,389.833 43.157 C 389.833 43.060,389.913 43.030,390.011 43.090 C 390.118 43.156,390.168 43.077,390.136 42.892 C 390.090 42.620,390.233 42.573,391.333 42.500 C 392.473 42.424,392.588 42.384,392.637 42.042 C 392.690 41.667,392.934 41.592,393.958 41.635 C 394.165 41.644,394.333 41.580,394.333 41.492 C 394.333 41.405,394.253 41.333,394.155 41.333 C 394.057 41.333,394.099 41.210,394.250 41.060 C 394.441 40.869,394.811 40.787,395.470 40.789 C 396.495 40.792,397.000 40.619,397.000 40.262 C 397.000 40.138,397.188 39.989,397.417 39.932 C 397.783 39.840,397.833 39.738,397.833 39.083 C 397.833 38.429,397.783 38.327,397.417 38.235 C 397.017 38.135,396.952 37.979,396.955 37.125 C 396.956 36.965,396.886 36.833,396.800 36.833 C 396.479 36.833,396.167 36.341,396.167 35.835 C 396.167 35.462,396.107 35.349,395.958 35.439 C 395.820 35.522,395.829 35.467,395.982 35.278 C 396.110 35.121,396.166 34.944,396.107 34.885 C 396.048 34.826,396.000 34.866,396.000 34.974 C 396.000 35.570,395.346 34.698,395.245 33.967 C 395.150 33.270,395.085 33.167,394.745 33.167 C 394.444 33.167,394.344 33.063,394.303 32.708 C 394.265 32.380,394.144 32.235,393.875 32.197 C 393.548 32.150,393.411 31.895,393.480 31.458 C 393.491 31.390,393.321 31.333,393.101 31.333 C 392.705 31.333,392.413 30.942,392.593 30.652 C 392.644 30.568,392.500 30.500,392.271 30.500 C 391.971 30.500,391.842 30.399,391.803 30.132 C 391.770 29.900,391.596 29.727,391.333 29.664 C 391.027 29.591,390.930 29.471,390.967 29.211 C 391.006 28.932,390.918 28.846,390.550 28.804 C 390.202 28.764,390.097 28.672,390.136 28.442 C 390.168 28.256,390.118 28.177,390.011 28.243 C 389.913 28.304,389.833 28.274,389.833 28.177 C 389.833 28.079,389.683 28.000,389.500 28.000 C 389.260 28.000,389.167 27.889,389.167 27.601 C 389.167 27.150,388.893 27.000,388.070 27.000 C 387.569 27.000,387.500 26.948,387.500 26.571 C 387.500 26.163,387.461 26.144,386.708 26.191 C 385.953 26.238,385.914 26.219,385.863 25.778 C 385.827 25.464,385.720 25.325,385.530 25.344 C 384.577 25.438,384.201 25.326,384.098 24.917 C 383.998 24.519,383.937 24.500,382.758 24.500 C 381.604 24.500,381.520 24.475,381.470 24.125 C 381.418 23.762,381.350 23.748,379.340 23.703 C 377.285 23.656,376.896 23.545,377.075 23.054 C 377.129 22.907,375.888 22.856,372.076 22.848 L 367.005 22.837 366.901 23.252 M211.252 24.805 C 211.102 25.195,211.161 26.167,211.333 26.167 C 211.443 26.167,211.500 32.722,211.500 45.500 C 211.500 58.278,211.443 64.833,211.333 64.833 C 211.151 64.833,211.106 65.813,211.268 66.236 C 211.323 66.381,211.511 66.500,211.684 66.500 C 211.858 66.500,212.006 66.594,212.014 66.708 C 212.021 66.823,212.040 68.154,212.055 69.667 C 212.083 72.382,212.088 72.417,212.458 72.470 C 212.756 72.512,212.834 72.632,212.838 73.053 C 212.859 75.403,212.996 76.000,213.510 76.000 C 213.818 76.000,213.919 76.402,213.878 77.462 C 213.873 77.578,213.955 77.663,214.060 77.650 C 214.581 77.587,214.667 77.695,214.667 78.407 C 214.667 79.105,214.985 79.697,215.013 79.052 C 215.021 78.875,215.061 78.837,215.111 78.959 C 215.157 79.075,215.264 79.126,215.348 79.075 C 215.431 79.023,215.500 79.054,215.500 79.143 C 215.500 79.232,215.406 79.343,215.292 79.390 C 215.163 79.441,215.192 79.479,215.365 79.487 C 215.561 79.496,215.627 79.609,215.579 79.856 C 215.541 80.052,215.555 80.167,215.610 80.112 C 215.901 79.821,216.318 80.380,216.366 81.126 C 216.412 81.848,216.453 81.916,216.837 81.913 C 217.177 81.910,217.257 81.990,217.254 82.330 C 217.251 82.686,217.320 82.745,217.712 82.718 C 217.969 82.700,218.131 82.757,218.076 82.845 C 217.878 83.166,218.186 83.667,218.583 83.667 C 218.889 83.667,218.990 83.769,219.031 84.124 C 219.065 84.418,219.198 84.602,219.405 84.642 C 219.582 84.675,219.832 84.808,219.960 84.936 C 220.088 85.065,220.262 85.128,220.345 85.076 C 220.428 85.025,220.452 85.099,220.397 85.241 C 220.319 85.446,220.424 85.500,220.899 85.500 C 221.429 85.500,221.500 85.549,221.500 85.917 C 221.500 86.250,221.583 86.333,221.917 86.333 C 222.226 86.333,222.333 86.422,222.333 86.677 C 222.333 86.865,222.408 86.973,222.500 86.917 C 222.592 86.860,222.667 86.893,222.667 86.990 C 222.667 87.237,223.121 87.211,223.223 86.958 C 223.290 86.792,223.310 86.792,223.320 86.958 C 223.329 87.095,223.618 87.167,224.167 87.167 C 224.944 87.167,225.000 87.194,225.000 87.583 C 225.000 87.993,225.023 88.000,226.323 88.000 C 227.144 88.000,227.692 88.073,227.766 88.192 C 227.840 88.312,227.812 88.340,227.692 88.266 C 227.568 88.189,227.501 88.283,227.503 88.532 C 227.505 88.841,227.537 88.868,227.667 88.667 C 227.774 88.500,227.829 88.486,227.831 88.625 C 227.833 88.788,229.262 88.833,234.417 88.833 C 239.571 88.833,241.001 88.788,241.003 88.625 C 241.004 88.484,241.062 88.497,241.182 88.667 C 241.321 88.862,241.343 88.817,241.286 88.458 L 241.213 88.000 242.543 88.000 C 243.803 88.000,243.868 87.982,243.782 87.656 C 243.680 87.264,243.854 87.164,244.725 87.117 C 245.281 87.086,245.412 86.957,245.363 86.488 C 245.357 86.435,245.738 86.374,246.208 86.353 C 247.216 86.307,247.333 86.252,247.333 85.823 C 247.333 85.646,247.408 85.491,247.500 85.479 C 247.592 85.468,247.742 85.440,247.833 85.417 C 247.925 85.394,248.056 85.364,248.125 85.352 C 248.194 85.339,248.137 85.256,248.000 85.167 C 247.818 85.049,247.810 85.004,247.968 85.003 C 248.088 85.001,248.140 84.925,248.083 84.833 C 248.023 84.736,248.193 84.667,248.490 84.667 C 248.946 84.667,249.000 84.613,249.000 84.167 C 249.000 83.743,249.064 83.667,249.420 83.667 C 249.777 83.667,249.829 83.604,249.764 83.250 C 249.698 82.884,249.747 82.833,250.175 82.833 C 250.658 82.833,250.913 82.435,250.826 81.814 C 250.760 81.338,250.844 81.188,251.208 81.137 C 251.495 81.096,251.590 80.965,251.610 80.583 C 251.624 80.308,251.643 79.957,251.651 79.803 C 251.660 79.646,251.831 79.500,252.042 79.470 C 252.283 79.436,252.436 79.283,252.470 79.042 C 252.508 78.770,252.635 78.667,252.928 78.667 L 253.333 78.667 253.333 82.917 L 253.333 87.167 261.917 87.167 L 270.500 87.167 270.500 55.875 L 270.500 24.583 261.917 24.583 L 253.333 24.583 253.333 43.042 L 253.333 61.500 252.917 61.500 C 252.501 61.500,252.500 61.505,252.500 63.095 C 252.500 64.291,252.437 64.753,252.250 64.940 C 252.057 65.133,251.999 65.140,251.997 64.970 C 251.996 64.808,251.953 64.815,251.833 65.000 C 251.601 65.359,251.627 65.709,251.875 65.569 C 252.042 65.475,252.042 65.496,251.875 65.676 C 251.760 65.799,251.667 66.260,251.667 66.700 C 251.667 67.469,251.538 67.626,251.043 67.458 C 250.975 67.435,250.880 67.642,250.832 67.917 C 250.760 68.318,250.670 68.406,250.372 68.365 C 250.167 68.336,250.000 68.397,250.000 68.499 C 250.000 68.602,250.075 68.640,250.167 68.583 C 250.492 68.383,250.695 68.693,250.386 68.918 C 250.161 69.083,250.054 69.089,249.962 68.944 C 249.894 68.837,249.837 69.031,249.836 69.375 C 249.834 69.937,249.789 70.000,249.399 70.000 C 249.085 70.000,248.990 70.068,249.058 70.245 C 249.180 70.563,248.729 71.014,248.412 70.892 C 248.231 70.822,248.167 70.923,248.167 71.274 C 248.167 71.731,248.135 71.750,247.376 71.750 C 246.644 71.750,246.586 71.781,246.584 72.167 C 246.583 72.571,246.545 72.585,245.293 72.632 C 244.080 72.678,243.997 72.705,243.900 73.090 L 243.797 73.500 239.982 73.500 L 236.167 73.500 236.167 73.083 C 236.167 72.689,236.117 72.667,235.250 72.667 C 234.385 72.667,234.333 72.643,234.333 72.253 C 234.333 71.951,234.221 71.812,233.917 71.735 C 233.667 71.672,233.500 71.511,233.500 71.333 C 233.500 70.980,233.179 70.833,232.403 70.833 C 231.866 70.833,231.833 70.801,231.833 70.264 C 231.833 69.539,231.690 69.167,231.412 69.167 C 230.921 69.167,230.167 68.162,230.167 67.508 C 230.167 66.366,229.996 65.868,229.565 65.760 C 229.172 65.662,229.167 65.635,229.167 63.580 L 229.167 61.500 228.750 61.500 L 228.333 61.500 228.333 43.042 L 228.333 24.583 219.835 24.583 C 212.912 24.583,211.321 24.624,211.252 24.805 M178.536 39.441 C 178.478 39.746,178.511 39.846,178.643 39.765 C 178.747 39.700,178.833 39.722,178.833 39.813 C 178.833 39.913,179.447 39.976,180.354 39.971 C 181.868 39.962,182.247 40.098,182.061 40.583 C 182.010 40.714,182.247 40.789,182.776 40.809 C 183.601 40.840,183.871 41.037,183.703 41.485 C 183.615 41.722,183.637 41.724,183.917 41.500 C 184.100 41.355,184.178 41.337,184.105 41.458 C 184.027 41.589,184.077 41.667,184.240 41.667 C 184.390 41.667,184.500 41.810,184.500 42.006 C 184.500 42.293,184.551 42.318,184.833 42.167 C 185.109 42.019,185.167 42.040,185.169 42.286 C 185.171 42.539,185.196 42.546,185.333 42.333 C 185.441 42.167,185.496 42.153,185.497 42.292 C 185.499 42.406,185.645 42.500,185.822 42.500 C 186.029 42.500,186.163 42.634,186.197 42.875 C 186.235 43.144,186.380 43.265,186.708 43.303 C 187.068 43.344,187.167 43.442,187.167 43.761 C 187.167 44.083,187.253 44.167,187.583 44.167 C 187.972 44.167,188.000 44.222,188.000 45.000 C 188.000 45.717,188.046 45.833,188.327 45.833 C 188.694 45.833,188.994 46.285,188.881 46.667 C 188.822 46.869,188.838 46.873,188.966 46.691 C 189.079 46.530,189.159 46.519,189.241 46.652 C 189.304 46.755,189.426 46.796,189.512 46.743 C 189.597 46.690,189.667 46.914,189.667 47.240 C 189.667 47.597,189.750 47.839,189.875 47.846 C 190.042 47.857,190.042 47.876,189.875 47.944 C 189.760 47.990,189.668 48.153,189.669 48.306 C 189.671 48.546,189.694 48.550,189.833 48.333 C 189.941 48.167,189.996 48.153,189.997 48.292 C 189.999 48.406,190.112 48.500,190.250 48.500 C 190.454 48.500,190.500 48.776,190.500 49.988 C 190.500 51.441,190.630 51.844,191.157 52.027 C 191.256 52.061,191.330 53.709,191.345 56.244 L 191.370 60.404 190.924 60.553 C 190.501 60.694,190.480 60.755,190.502 61.726 C 190.536 63.160,190.548 63.118,190.050 63.243 C 189.698 63.332,189.653 63.389,189.842 63.509 C 190.008 63.614,190.018 63.662,189.875 63.664 C 189.760 63.666,189.667 63.788,189.667 63.937 C 189.667 64.170,189.708 64.176,189.958 63.982 C 190.232 63.770,190.233 63.777,189.980 64.086 C 189.832 64.268,189.741 64.500,189.778 64.603 C 189.816 64.705,189.615 64.835,189.333 64.892 C 188.851 64.988,188.822 65.036,188.860 65.675 C 188.899 66.342,188.695 66.658,188.219 66.664 C 188.111 66.666,187.998 66.873,187.969 67.125 C 187.926 67.502,187.846 67.573,187.518 67.527 C 187.188 67.481,187.136 67.530,187.210 67.813 C 187.259 68.001,187.196 68.240,187.068 68.346 C 186.941 68.452,186.885 68.616,186.944 68.711 C 187.005 68.810,186.971 68.835,186.865 68.769 C 186.762 68.706,186.590 68.794,186.483 68.966 C 186.354 69.172,186.156 69.253,185.901 69.205 C 185.595 69.146,185.493 69.221,185.406 69.565 C 185.325 69.889,185.191 70.000,184.881 70.000 C 184.601 70.000,184.492 70.073,184.550 70.223 C 184.717 70.658,184.381 70.876,183.560 70.869 C 182.973 70.864,182.842 70.901,183.083 71.003 C 183.361 71.120,183.369 71.145,183.130 71.155 C 182.946 71.162,182.878 71.256,182.940 71.417 C 183.029 71.649,182.484 71.786,181.919 71.673 C 181.312 71.552,180.351 71.875,180.302 72.217 C 180.251 72.573,180.174 72.586,177.583 72.667 C 173.310 72.800,170.665 72.699,170.777 72.405 C 170.941 71.980,170.500 71.667,169.741 71.667 C 169.123 71.667,169.016 71.614,168.970 71.292 C 168.927 70.991,168.801 70.911,168.333 70.889 C 168.012 70.874,167.661 70.856,167.553 70.848 C 167.445 70.840,167.333 70.665,167.303 70.458 C 167.269 70.214,167.116 70.064,166.866 70.029 C 166.644 69.997,166.417 69.805,166.328 69.571 C 166.197 69.225,166.065 69.167,165.421 69.167 C 164.728 69.167,164.667 69.133,164.667 68.750 C 164.667 68.419,164.583 68.333,164.259 68.333 C 163.891 68.333,163.847 68.256,163.801 67.542 C 163.757 66.866,163.695 66.742,163.375 66.697 C 163.017 66.646,162.970 66.572,162.933 66.000 C 162.924 65.862,162.748 65.726,162.542 65.697 C 162.185 65.646,162.091 65.385,162.122 64.542 C 162.126 64.427,162.044 64.332,161.940 64.331 C 161.835 64.329,161.862 64.256,162.000 64.167 C 162.137 64.078,162.171 64.004,162.075 64.003 C 161.979 64.001,161.799 64.094,161.676 64.208 C 161.531 64.342,161.490 64.347,161.560 64.223 C 161.620 64.116,161.592 64.003,161.499 63.972 C 161.405 63.941,161.311 63.390,161.289 62.749 C 161.253 61.681,161.219 61.579,160.875 61.530 C 160.426 61.466,160.463 61.897,160.432 56.333 C 160.403 51.264,160.423 51.000,160.833 51.000 C 161.188 51.000,161.328 50.546,161.331 49.387 C 161.333 48.619,161.375 48.517,161.708 48.470 C 162.027 48.425,162.091 48.300,162.134 47.635 C 162.176 46.977,162.241 46.846,162.550 46.802 C 162.858 46.758,162.930 46.617,163.000 45.917 C 163.073 45.186,163.129 45.086,163.451 45.103 C 163.653 45.113,163.813 45.076,163.806 45.019 C 163.734 44.418,163.865 44.167,164.250 44.167 C 164.583 44.167,164.667 44.083,164.667 43.750 C 164.667 43.398,164.744 43.333,165.167 43.333 C 165.589 43.333,165.667 43.269,165.667 42.917 C 165.667 42.579,165.749 42.500,166.101 42.500 C 166.396 42.500,166.508 42.428,166.450 42.277 C 166.301 41.888,166.560 41.700,167.333 41.635 C 167.985 41.579,168.081 41.522,168.063 41.202 C 168.043 40.824,168.418 40.722,169.480 40.817 C 169.760 40.842,169.850 40.784,169.787 40.620 C 169.596 40.122,169.936 39.982,171.349 39.974 C 173.136 39.964,173.333 39.908,173.333 39.405 L 173.333 39.000 175.977 39.000 L 178.620 39.000 178.536 39.441 M308.333 39.313 C 308.333 39.694,308.743 40.063,309.036 39.946 C 309.174 39.890,309.151 39.855,308.968 39.846 C 308.813 39.839,308.647 39.769,308.598 39.691 C 308.550 39.612,308.695 39.584,308.922 39.627 C 309.148 39.670,309.333 39.768,309.333 39.845 C 309.333 39.921,309.858 39.982,310.500 39.980 C 311.646 39.977,312.167 40.188,312.167 40.655 C 312.167 40.753,312.459 40.833,312.815 40.833 C 313.368 40.833,313.479 40.895,313.568 41.250 C 313.678 41.685,314.321 41.857,314.346 41.458 C 314.357 41.292,314.376 41.292,314.444 41.458 C 314.490 41.573,314.691 41.667,314.891 41.667 C 315.108 41.667,315.321 41.818,315.419 42.042 C 315.509 42.248,315.696 42.417,315.833 42.417 C 315.982 42.417,316.105 42.602,316.136 42.875 C 316.177 43.235,316.276 43.333,316.594 43.333 C 316.916 43.333,317.000 43.420,317.000 43.750 C 317.000 44.083,317.083 44.167,317.417 44.167 C 317.805 44.167,317.906 44.307,317.851 44.771 C 317.838 44.874,318.017 45.082,318.247 45.233 C 318.478 45.384,318.667 45.661,318.667 45.848 C 318.667 46.318,318.966 46.833,319.238 46.833 C 319.376 46.833,319.520 47.140,319.608 47.625 C 319.724 48.265,319.824 48.427,320.126 48.470 C 320.509 48.524,320.556 48.670,320.504 49.625 C 320.488 49.923,320.555 50.167,320.654 50.167 C 320.753 50.167,320.833 50.382,320.833 50.646 C 320.833 50.910,320.946 51.219,321.083 51.333 C 321.294 51.508,321.333 52.221,321.333 55.833 C 321.333 59.446,321.294 60.159,321.083 60.333 C 320.946 60.447,320.833 60.757,320.833 61.020 C 320.833 61.284,320.758 61.500,320.667 61.500 C 320.574 61.500,320.500 61.940,320.500 62.488 C 320.500 63.346,320.445 63.519,320.079 63.807 C 319.847 63.990,319.672 64.201,319.689 64.278 C 319.764 64.602,319.437 65.359,319.130 65.574 C 318.929 65.714,318.848 65.888,318.924 66.012 C 319.006 66.145,318.983 66.176,318.859 66.099 C 318.738 66.025,318.667 66.104,318.667 66.312 C 318.667 66.529,318.537 66.662,318.292 66.697 C 318.000 66.738,317.905 66.876,317.863 67.316 C 317.808 67.891,317.507 68.333,317.171 68.333 C 317.069 68.333,316.998 68.427,317.012 68.542 C 317.079 69.056,316.963 69.151,316.208 69.199 C 315.533 69.243,315.409 69.305,315.363 69.625 C 315.325 69.896,315.198 70.000,314.905 70.000 C 314.682 70.000,314.500 70.079,314.500 70.177 C 314.500 70.274,314.570 70.310,314.655 70.257 C 314.740 70.204,314.865 70.249,314.931 70.356 C 315.006 70.479,314.979 70.507,314.858 70.432 C 314.750 70.365,314.620 70.427,314.564 70.573 C 314.500 70.740,314.257 70.833,313.888 70.833 C 313.202 70.833,312.667 71.088,312.667 71.413 C 312.667 71.576,312.421 71.664,311.875 71.699 C 311.155 71.745,311.083 71.788,311.083 72.167 L 311.083 72.583 306.292 72.628 L 301.500 72.672 301.500 72.260 C 301.500 71.782,300.864 71.590,299.616 71.691 C 298.982 71.742,298.896 71.711,298.964 71.451 C 299.007 71.287,298.977 71.165,298.896 71.179 C 298.472 71.257,298.269 71.135,298.583 70.990 C 298.827 70.878,298.682 70.848,298.043 70.877 C 297.149 70.918,296.911 70.759,297.106 70.250 C 297.176 70.068,297.087 70.000,296.779 70.000 C 296.468 70.000,296.343 69.901,296.303 69.625 C 296.270 69.388,296.116 69.231,295.885 69.198 C 295.658 69.166,295.501 69.009,295.469 68.781 C 295.436 68.554,295.279 68.397,295.052 68.365 C 294.828 68.333,294.667 68.175,294.635 67.955 C 294.603 67.734,294.424 67.558,294.167 67.496 C 293.884 67.427,293.767 67.299,293.803 67.097 C 293.832 66.934,293.783 66.844,293.695 66.899 C 293.607 66.953,293.492 66.886,293.439 66.749 C 293.387 66.612,293.229 66.500,293.089 66.500 C 292.897 66.500,292.833 66.313,292.833 65.753 C 292.833 65.096,292.784 64.994,292.417 64.902 C 292.043 64.808,292.000 64.713,292.000 63.982 C 292.000 63.227,291.970 63.167,291.589 63.167 C 291.182 63.167,291.178 63.150,291.131 61.458 C 291.086 59.830,291.066 59.747,290.708 59.697 C 290.333 59.644,290.333 59.642,290.333 56.256 L 290.333 52.869 290.760 52.762 C 291.141 52.667,291.184 52.579,291.155 51.953 C 291.063 49.944,291.148 49.359,291.542 49.303 C 291.886 49.254,291.921 49.150,291.966 48.042 C 292.013 46.883,292.031 46.833,292.424 46.833 C 292.750 46.833,292.833 46.748,292.833 46.417 C 292.833 46.114,292.923 46.000,293.161 46.000 C 293.575 46.000,293.833 45.524,293.833 44.761 C 293.833 44.234,293.882 44.167,294.260 44.167 C 294.608 44.167,294.678 44.097,294.635 43.792 C 294.594 43.491,294.674 43.406,295.042 43.364 C 295.402 43.323,295.500 43.224,295.500 42.906 C 295.500 42.530,295.562 42.500,296.333 42.500 C 297.139 42.500,297.167 42.484,297.167 42.023 C 297.167 41.604,297.217 41.556,297.583 41.626 C 297.942 41.694,298.000 41.645,298.000 41.269 C 298.000 40.808,298.162 40.759,299.447 40.828 C 300.082 40.863,300.667 40.582,300.667 40.244 C 300.667 40.009,301.127 39.935,302.333 39.973 C 303.289 40.004,304.000 39.807,304.000 39.513 C 304.000 39.032,304.141 39.000,306.278 39.000 C 308.178 39.000,308.333 39.024,308.333 39.313 M47.745 54.833 C 47.745 60.837,47.766 63.294,47.792 60.292 C 47.817 57.290,47.817 52.377,47.792 49.375 C 47.766 46.373,47.745 48.829,47.745 54.833 M273.900 49.628 C 273.799 49.695,273.674 49.862,273.621 50.000 C 273.558 50.167,273.522 50.126,273.513 49.875 C 273.504 49.623,273.596 49.501,273.792 49.503 C 273.972 49.504,274.013 49.552,273.900 49.628 " stroke="none" fill="#fcfcfc" fill-rule="evenodd"></path><path id="path1" d="M16.902 24.083 C 16.801 24.484,16.746 24.500,15.482 24.500 C 14.190 24.500,14.167 24.507,14.167 24.917 C 14.167 25.305,14.107 25.335,13.292 25.358 C 12.810 25.372,12.274 25.390,12.100 25.400 C 11.926 25.409,11.763 25.555,11.737 25.724 C 11.673 26.156,11.595 26.203,10.900 26.230 C 10.474 26.246,10.227 26.356,10.100 26.585 C 9.999 26.767,9.898 26.948,9.875 26.986 C 9.852 27.024,9.664 27.068,9.458 27.082 C 9.185 27.102,9.069 27.230,9.031 27.555 C 8.990 27.901,8.888 28.000,8.572 28.000 C 8.251 28.000,8.167 28.086,8.167 28.417 C 8.167 28.750,8.083 28.833,7.750 28.833 C 7.417 28.833,7.333 28.917,7.333 29.250 C 7.333 29.583,7.250 29.667,6.917 29.667 C 6.583 29.667,6.500 29.750,6.500 30.083 C 6.500 30.417,6.417 30.500,6.083 30.500 C 5.753 30.500,5.667 30.584,5.667 30.906 C 5.667 31.224,5.568 31.323,5.208 31.364 C 4.945 31.394,4.743 31.523,4.734 31.667 C 4.696 32.241,4.655 32.319,4.434 32.233 C 4.305 32.184,4.139 32.243,4.063 32.364 C 3.909 32.609,3.895 32.687,3.859 33.458 C 3.839 33.870,3.757 34.000,3.518 34.000 C 3.107 34.000,3.000 34.312,3.000 35.514 C 3.000 36.459,2.982 36.500,2.576 36.500 L 2.152 36.500 2.201 42.458 L 2.250 48.417 2.625 48.470 C 2.956 48.517,3.000 48.620,3.000 49.345 C 3.000 50.105,3.030 50.167,3.408 50.167 C 3.774 50.167,3.820 50.245,3.866 50.941 C 3.911 51.630,4.131 51.966,4.621 52.093 C 4.641 52.098,4.705 52.398,4.762 52.760 C 4.892 53.582,4.946 53.667,5.332 53.667 C 5.528 53.667,5.663 53.805,5.697 54.042 C 5.730 54.279,5.884 54.436,6.115 54.469 C 6.342 54.501,6.499 54.658,6.531 54.885 C 6.564 55.116,6.721 55.270,6.958 55.303 C 7.165 55.333,7.343 55.426,7.354 55.512 C 7.366 55.597,7.384 55.760,7.396 55.875 C 7.407 55.990,7.768 56.151,8.197 56.234 C 8.812 56.353,8.997 56.467,9.075 56.775 C 9.128 56.989,9.227 57.156,9.295 57.146 C 10.189 57.009,10.833 57.192,10.833 57.583 C 10.833 57.972,10.889 58.000,11.667 58.000 C 12.444 58.000,12.500 58.028,12.500 58.417 C 12.500 58.805,12.556 58.833,13.322 58.833 C 14.047 58.833,14.150 58.877,14.197 59.208 C 14.246 59.554,14.347 59.587,15.505 59.631 C 16.616 59.674,16.778 59.722,16.922 60.048 C 17.107 60.471,17.017 60.455,19.375 60.481 L 21.167 60.500 21.167 60.917 L 21.167 61.333 23.234 61.333 L 25.301 61.333 25.476 61.836 C 25.572 62.112,25.711 62.328,25.784 62.316 C 27.001 62.112,28.833 62.367,28.833 62.741 C 28.833 63.116,28.905 63.153,29.708 63.200 C 30.256 63.231,30.591 63.328,30.604 63.458 C 30.653 63.943,30.673 63.999,30.792 63.980 C 31.680 63.840,32.333 64.025,32.333 64.417 C 32.333 64.750,32.417 64.833,32.750 64.833 C 33.083 64.833,33.167 64.917,33.167 65.250 C 33.167 65.583,33.250 65.667,33.583 65.667 C 33.944 65.667,34.003 65.744,34.021 66.250 C 34.055 67.208,34.068 67.243,34.458 67.415 C 35.076 67.685,35.038 71.579,34.417 71.735 C 34.116 71.810,34.000 71.952,34.000 72.242 C 34.000 72.531,33.895 72.658,33.625 72.697 C 33.390 72.730,33.231 72.884,33.199 73.108 C 33.171 73.305,32.997 73.506,32.812 73.554 C 32.627 73.602,32.435 73.797,32.385 73.988 C 32.333 74.185,32.158 74.333,31.977 74.333 C 31.800 74.333,31.575 74.518,31.470 74.750 C 31.345 75.024,31.132 75.175,30.848 75.192 C 30.190 75.231,30.099 75.249,29.882 75.385 C 29.772 75.454,29.723 75.621,29.775 75.755 C 29.856 75.967,29.214 76.000,25.018 76.000 L 20.167 76.000 20.167 75.583 C 20.167 75.195,20.110 75.167,19.345 75.167 C 18.620 75.167,18.517 75.123,18.470 74.792 C 18.425 74.473,18.300 74.409,17.635 74.366 C 16.977 74.324,16.846 74.259,16.802 73.950 C 16.765 73.690,16.616 73.568,16.292 73.531 C 15.932 73.489,15.833 73.391,15.833 73.072 C 15.833 72.751,15.747 72.667,15.417 72.667 C 15.028 72.667,15.000 72.611,15.000 71.837 C 15.000 71.095,14.957 70.995,14.592 70.904 C 14.242 70.816,14.176 70.690,14.133 70.026 C 14.092 69.378,14.028 69.250,13.750 69.250 C 13.429 69.250,13.415 69.124,13.372 65.792 L 13.327 62.333 6.663 62.333 L 0.000 62.333 0.000 66.167 C 0.000 69.422,0.037 70.000,0.244 70.000 C 0.440 70.000,0.498 70.341,0.536 71.708 C 0.581 73.336,0.601 73.419,0.958 73.470 C 1.309 73.520,1.333 73.604,1.333 74.762 C 1.333 75.964,1.345 76.000,1.741 76.000 C 2.109 76.000,2.153 76.077,2.199 76.792 C 2.243 77.467,2.305 77.591,2.625 77.637 C 2.983 77.688,3.118 78.147,3.012 78.960 C 2.997 79.075,3.166 79.238,3.388 79.322 C 3.612 79.408,3.839 79.666,3.899 79.905 C 3.969 80.183,4.121 80.333,4.333 80.333 C 4.543 80.333,4.698 80.483,4.765 80.750 C 4.840 81.049,4.982 81.167,5.268 81.167 C 5.582 81.167,5.667 81.255,5.667 81.583 C 5.667 81.917,5.750 82.000,6.083 82.000 C 6.417 82.000,6.500 82.083,6.500 82.417 C 6.500 82.750,6.583 82.833,6.917 82.833 C 7.250 82.833,7.333 82.917,7.333 83.250 C 7.333 83.583,7.417 83.667,7.750 83.667 C 8.128 83.667,8.206 83.786,8.154 84.285 C 8.136 84.464,8.683 84.642,9.292 84.655 C 9.590 84.661,9.843 84.742,9.854 84.833 C 9.866 84.925,9.884 85.094,9.896 85.208 C 9.907 85.323,10.123 85.440,10.375 85.469 C 10.735 85.511,10.833 85.609,10.833 85.928 C 10.833 86.321,10.871 86.333,12.072 86.333 C 13.229 86.333,13.314 86.358,13.363 86.708 C 13.409 87.026,13.543 87.096,14.250 87.167 C 14.943 87.236,15.092 87.310,15.134 87.608 C 15.183 87.950,15.275 87.966,17.218 87.989 C 18.844 88.009,19.300 88.067,19.500 88.280 C 19.637 88.427,19.657 88.495,19.544 88.431 C 19.405 88.354,19.370 88.401,19.436 88.575 C 19.523 88.801,20.217 88.833,25.018 88.833 L 30.500 88.833 30.500 88.422 L 30.500 88.010 32.625 87.963 C 34.673 87.918,34.752 87.903,34.802 87.549 C 34.850 87.214,34.962 87.176,36.052 87.132 C 37.150 87.087,37.254 87.052,37.303 86.708 C 37.353 86.361,37.881 86.198,38.559 86.319 C 38.813 86.365,39.184 85.953,39.096 85.723 C 39.036 85.568,39.160 85.500,39.505 85.500 C 39.922 85.500,40.000 85.434,40.000 85.083 C 40.000 84.745,40.086 84.663,40.458 84.647 C 40.710 84.637,40.992 84.611,41.083 84.589 C 41.175 84.568,41.344 84.539,41.458 84.525 C 41.573 84.511,41.667 84.313,41.667 84.083 C 41.667 83.750,41.750 83.667,42.083 83.667 C 42.417 83.667,42.500 83.583,42.500 83.250 C 42.500 82.898,42.578 82.833,43.000 82.833 C 43.418 82.833,43.500 82.767,43.500 82.428 C 43.500 82.135,43.604 82.008,43.875 81.970 C 44.112 81.936,44.269 81.783,44.302 81.552 C 44.334 81.325,44.491 81.168,44.719 81.135 C 45.026 81.092,45.091 80.960,45.134 80.302 C 45.176 79.643,45.241 79.513,45.550 79.469 C 45.867 79.424,45.924 79.297,45.967 78.542 C 46.013 77.738,46.051 77.667,46.425 77.667 C 46.804 77.667,46.833 77.606,46.833 76.833 C 46.833 76.014,46.940 75.885,47.542 75.980 C 47.610 75.991,47.667 75.025,47.667 73.833 L 47.667 71.667 48.072 71.667 C 48.359 71.667,48.498 71.558,48.549 71.292 C 48.589 71.085,48.631 71.646,48.644 72.538 C 48.666 74.114,48.678 74.163,49.076 74.263 C 49.458 74.359,49.489 74.449,49.535 75.558 C 49.579 76.650,49.615 76.754,49.958 76.803 C 50.304 76.852,50.482 77.561,50.353 78.375 C 50.335 78.488,50.725 78.570,51.042 78.520 C 51.152 78.502,51.249 79.345,51.181 79.726 C 51.135 79.979,51.532 80.333,51.861 80.333 C 52.037 80.333,52.169 80.427,52.154 80.542 C 52.091 81.025,52.190 81.167,52.591 81.167 C 52.833 81.167,53.003 81.256,52.988 81.375 C 52.925 81.857,53.023 82.000,53.417 82.000 C 53.750 82.000,53.833 82.083,53.833 82.417 C 53.833 82.750,53.917 82.833,54.250 82.833 C 54.583 82.833,54.667 82.917,54.667 83.250 C 54.667 83.583,54.750 83.667,55.083 83.667 C 55.417 83.667,55.500 83.750,55.500 84.083 C 55.500 84.313,55.594 84.511,55.708 84.525 C 55.823 84.539,56.029 84.562,56.167 84.575 C 56.304 84.588,56.393 84.705,56.363 84.835 C 56.286 85.177,56.812 85.500,57.445 85.500 C 57.891 85.500,58.013 85.578,58.098 85.917 C 58.192 86.290,58.287 86.333,59.018 86.333 C 59.777 86.333,59.833 86.362,59.833 86.750 C 59.833 87.159,59.857 87.167,61.144 87.167 C 62.443 87.167,62.454 87.170,62.408 87.583 L 62.363 88.000 64.098 88.000 C 65.717 88.000,65.833 88.022,65.833 88.330 C 65.833 88.822,66.137 88.848,71.333 88.797 L 76.083 88.750 76.137 88.375 C 76.188 88.015,76.255 88.000,77.845 88.000 C 79.492 88.000,79.500 87.998,79.500 87.590 C 79.500 87.195,79.544 87.179,80.792 87.132 C 81.987 87.087,82.087 87.055,82.137 86.708 C 82.183 86.384,82.290 86.333,82.925 86.333 C 83.570 86.333,83.673 86.282,83.765 85.917 C 83.852 85.568,83.969 85.500,84.476 85.497 C 85.202 85.494,85.440 85.362,85.525 84.917 C 85.559 84.733,85.624 84.615,85.669 84.653 C 85.852 84.811,86.500 84.298,86.500 83.994 C 86.500 83.756,86.614 83.667,86.917 83.667 C 87.250 83.667,87.333 83.583,87.333 83.250 C 87.333 82.917,87.417 82.833,87.750 82.833 C 88.083 82.833,88.167 82.750,88.167 82.417 C 88.167 82.083,88.250 82.000,88.583 82.000 C 88.917 82.000,89.000 81.917,89.000 81.583 C 89.000 81.250,89.083 81.167,89.417 81.167 C 89.805 81.167,89.833 81.110,89.833 80.344 C 89.833 79.571,89.861 79.519,90.292 79.469 C 90.620 79.432,90.765 79.310,90.803 79.042 C 90.833 78.835,90.921 78.667,91.000 78.667 C 91.340 78.667,91.667 78.098,91.667 77.506 C 91.667 76.966,91.730 76.854,92.083 76.765 C 92.478 76.666,92.500 76.599,92.500 75.497 C 92.500 74.466,92.536 74.333,92.816 74.333 C 93.254 74.333,93.333 74.025,93.333 72.320 C 93.333 70.845,93.337 70.833,93.750 70.833 L 94.167 70.833 94.167 56.337 L 94.167 41.840 93.756 41.737 C 93.357 41.636,93.343 41.584,93.297 39.942 C 93.254 38.377,93.225 38.250,92.917 38.250 C 92.623 38.250,92.577 38.122,92.533 37.173 C 92.483 36.115,92.274 35.581,91.980 35.762 C 91.798 35.875,91.687 35.602,91.602 34.833 C 91.566 34.512,91.529 34.194,91.519 34.125 C 91.508 34.056,91.360 34.000,91.188 34.000 C 90.941 34.000,90.854 33.832,90.768 33.184 C 90.677 32.497,90.595 32.351,90.247 32.264 C 89.946 32.188,89.833 32.048,89.833 31.747 C 89.833 31.417,89.749 31.333,89.417 31.333 C 89.083 31.333,89.000 31.250,89.000 30.917 C 89.000 30.583,88.917 30.500,88.583 30.500 C 88.250 30.500,88.167 30.417,88.167 30.083 C 88.167 29.753,88.083 29.667,87.762 29.667 C 87.468 29.667,87.342 29.563,87.303 29.292 C 87.269 29.051,87.116 28.898,86.875 28.863 C 86.604 28.825,86.500 28.698,86.500 28.405 C 86.500 28.084,86.413 28.000,86.083 28.000 C 85.854 28.000,85.666 27.906,85.664 27.792 C 85.657 27.236,85.324 27.056,84.220 27.014 C 83.975 27.005,83.839 26.877,83.803 26.625 C 83.770 26.388,83.616 26.231,83.385 26.198 C 83.158 26.166,83.001 26.009,82.969 25.781 C 82.921 25.450,82.806 25.412,81.719 25.368 C 80.628 25.324,80.517 25.286,80.469 24.951 C 80.421 24.613,80.313 24.579,79.125 24.535 C 77.876 24.488,77.833 24.472,77.833 24.074 L 77.833 23.663 71.042 23.706 L 64.250 23.750 64.197 24.125 C 64.147 24.478,64.066 24.500,62.822 24.500 C 61.523 24.500,61.500 24.507,61.500 24.917 C 61.500 25.305,61.441 25.335,60.625 25.358 C 60.144 25.372,59.607 25.390,59.433 25.400 C 59.259 25.409,59.096 25.555,59.071 25.724 C 59.009 26.136,58.985 26.151,58.325 26.191 C 57.696 26.228,57.167 26.580,57.167 26.960 C 57.167 27.097,57.067 27.164,56.937 27.114 C 56.647 27.003,56.333 27.308,56.333 27.700 C 56.333 27.909,56.207 28.000,55.917 28.000 C 55.583 28.000,55.500 28.083,55.500 28.417 C 55.500 28.750,55.417 28.833,55.083 28.833 C 54.750 28.833,54.667 28.917,54.667 29.250 C 54.667 29.583,54.583 29.667,54.250 29.667 C 53.920 29.667,53.833 29.751,53.833 30.072 C 53.833 30.391,53.735 30.489,53.375 30.531 C 53.042 30.569,52.930 30.665,52.967 30.881 C 53.001 31.084,52.858 31.233,52.513 31.354 C 52.236 31.450,52.016 31.579,52.025 31.640 C 52.077 32.030,51.970 32.344,51.792 32.321 C 51.420 32.273,51.166 32.330,51.186 32.458 C 51.320 33.302,51.140 34.000,50.789 34.000 C 50.456 34.000,50.407 34.091,50.377 34.773 C 50.337 35.658,50.327 35.675,49.852 35.711 C 49.528 35.735,49.500 35.835,49.500 36.952 C 49.500 37.637,49.427 38.176,49.333 38.188 C 49.242 38.199,49.073 38.218,48.958 38.229 C 48.810 38.244,48.736 38.742,48.703 39.958 C 48.659 41.511,48.626 41.667,48.337 41.667 C 47.805 41.667,47.806 41.651,47.786 53.882 C 47.776 60.409,47.742 64.794,47.712 63.625 L 47.657 61.500 47.245 61.500 C 46.857 61.500,46.833 61.447,46.833 60.583 C 46.833 59.722,46.809 59.667,46.426 59.667 C 46.058 59.667,46.013 59.590,45.967 58.875 C 45.924 58.199,45.862 58.076,45.542 58.030 C 45.270 57.992,45.167 57.865,45.167 57.572 C 45.167 57.251,45.080 57.167,44.750 57.167 C 44.417 57.167,44.333 57.083,44.333 56.750 C 44.333 56.417,44.250 56.333,43.917 56.333 C 43.583 56.333,43.500 56.250,43.500 55.917 C 43.500 55.688,43.425 55.491,43.333 55.479 C 43.242 55.468,43.092 55.440,43.000 55.417 C 42.908 55.394,42.758 55.366,42.667 55.354 C 42.575 55.343,42.500 55.146,42.500 54.917 C 42.500 54.587,42.416 54.500,42.095 54.500 C 41.802 54.500,41.675 54.396,41.637 54.125 C 41.591 53.805,41.467 53.743,40.792 53.699 C 40.077 53.653,40.000 53.609,40.000 53.241 C 40.000 52.864,39.939 52.833,39.178 52.833 C 38.453 52.833,38.350 52.789,38.303 52.458 C 38.257 52.132,38.137 52.077,37.375 52.033 C 36.571 51.987,36.500 51.949,36.500 51.575 C 36.500 51.178,36.464 51.167,35.262 51.167 C 34.104 51.167,34.020 51.142,33.970 50.792 C 33.919 50.434,33.836 50.414,32.219 50.369 L 30.521 50.322 30.469 49.869 C 30.412 49.375,30.418 49.376,27.208 49.344 C 26.226 49.334,26.167 49.311,26.167 48.938 C 26.167 48.605,26.082 48.542,25.625 48.538 C 22.760 48.510,22.877 48.528,22.765 48.083 C 22.665 47.685,22.604 47.667,21.413 47.667 C 20.195 47.667,20.167 47.657,20.167 47.250 C 20.167 47.021,20.110 46.842,20.042 46.853 C 19.228 46.982,18.519 46.804,18.470 46.458 C 18.424 46.138,18.301 46.076,17.625 46.033 C 16.910 45.987,16.833 45.942,16.833 45.574 C 16.833 45.232,16.753 45.167,16.333 45.167 L 15.833 45.167 15.833 43.917 C 15.833 43.208,15.761 42.658,15.667 42.646 C 15.575 42.634,15.406 42.616,15.292 42.604 C 14.858 42.561,14.929 40.866,15.367 40.804 C 15.703 40.757,15.756 40.643,15.800 39.875 C 15.847 39.073,15.885 39.000,16.256 39.000 C 16.544 39.000,16.689 38.885,16.761 38.598 C 16.821 38.358,17.025 38.155,17.264 38.095 C 17.520 38.030,17.667 37.874,17.667 37.663 C 17.667 37.401,17.787 37.329,18.250 37.313 C 19.214 37.278,19.248 37.264,19.303 36.875 C 19.351 36.539,19.455 36.498,20.303 36.481 C 21.724 36.452,21.746 36.445,21.803 36.042 C 21.855 35.675,21.904 35.667,24.008 35.667 L 26.160 35.667 26.265 36.083 C 26.365 36.484,26.420 36.500,27.695 36.500 C 28.448 36.500,28.979 36.565,28.926 36.652 C 28.688 37.036,29.051 37.333,29.756 37.333 C 30.377 37.333,30.484 37.385,30.530 37.708 C 30.564 37.949,30.717 38.102,30.958 38.137 C 31.286 38.183,31.422 38.438,31.353 38.875 C 31.342 38.944,31.558 39.000,31.833 39.000 C 32.322 39.000,32.333 39.019,32.333 39.833 C 32.333 40.292,32.408 40.678,32.500 40.692 C 32.592 40.705,32.760 40.724,32.875 40.733 C 32.999 40.743,33.117 41.086,33.167 41.583 C 33.237 42.287,33.308 42.425,33.620 42.469 C 33.977 42.520,33.992 42.595,34.037 44.636 L 34.083 46.750 40.461 46.794 L 46.839 46.837 46.794 42.127 C 46.751 37.543,46.741 37.417,46.417 37.417 C 46.120 37.417,46.074 37.278,46.000 36.167 C 45.924 35.027,45.884 34.912,45.542 34.863 C 45.174 34.811,45.072 34.482,45.157 33.631 C 45.175 33.450,45.028 33.305,44.760 33.237 C 44.452 33.160,44.333 33.020,44.333 32.735 C 44.333 32.459,44.215 32.310,43.942 32.242 C 43.634 32.164,43.520 31.979,43.401 31.363 C 43.281 30.745,43.181 30.583,42.917 30.583 C 42.677 30.583,42.569 30.455,42.531 30.125 C 42.489 29.765,42.391 29.667,42.072 29.667 C 41.751 29.667,41.667 29.580,41.667 29.250 C 41.667 28.861,41.611 28.833,40.833 28.833 C 40.056 28.833,40.000 28.806,40.000 28.417 C 40.000 28.086,39.916 28.000,39.594 28.000 C 39.276 28.000,39.177 27.902,39.136 27.542 C 39.107 27.290,38.990 27.074,38.875 27.063 C 38.760 27.051,38.422 27.032,38.123 27.021 C 37.731 27.006,37.533 26.896,37.415 26.625 C 37.324 26.419,37.086 26.227,36.885 26.198 C 36.658 26.166,36.501 26.009,36.469 25.781 C 36.413 25.389,36.388 25.381,34.976 25.353 C 34.120 25.335,34.027 25.296,33.932 24.917 C 33.832 24.519,33.770 24.500,32.598 24.500 C 31.427 24.500,31.365 24.481,31.265 24.083 L 31.160 23.667 24.083 23.667 L 17.006 23.667 16.902 24.083 M97.667 55.830 L 97.667 87.167 117.833 87.167 L 138.000 87.167 138.000 81.167 L 138.000 75.167 124.250 75.167 L 110.500 75.167 110.480 49.958 C 110.469 36.094,110.468 24.697,110.478 24.632 C 110.487 24.568,107.609 24.510,104.081 24.504 L 97.667 24.493 97.667 55.830 M211.247 45.500 C 211.247 56.179,211.267 60.548,211.292 55.208 C 211.316 49.869,211.316 41.131,211.292 35.792 C 211.267 30.452,211.247 34.821,211.247 45.500 M74.470 36.125 C 74.517 36.456,74.620 36.500,75.345 36.500 C 76.110 36.500,76.167 36.529,76.167 36.917 C 76.167 37.250,76.250 37.333,76.583 37.333 C 76.964 37.333,77.097 37.549,77.020 38.042 C 77.009 38.110,77.179 38.167,77.399 38.167 C 77.685 38.167,77.827 38.284,77.902 38.583 C 77.968 38.846,78.124 39.000,78.325 39.000 C 78.547 39.000,78.661 39.136,78.697 39.443 C 78.730 39.723,78.864 39.903,79.057 39.931 C 79.479 39.991,79.531 40.068,79.584 40.700 C 79.609 41.002,79.638 41.344,79.648 41.458 C 79.658 41.573,79.854 41.667,80.083 41.667 C 80.465 41.667,80.725 43.576,80.520 44.875 C 80.509 44.944,80.688 45.000,80.917 45.000 L 81.333 45.000 81.333 56.250 C 81.333 68.280,81.374 67.616,80.646 67.527 C 80.589 67.520,80.529 68.237,80.512 69.121 C 80.480 70.857,80.426 71.071,80.060 70.931 C 79.745 70.810,79.643 71.099,79.519 72.458 C 79.509 72.573,79.312 72.667,79.083 72.667 C 78.854 72.667,78.676 72.723,78.686 72.792 C 78.757 73.239,78.628 73.500,78.337 73.500 C 78.123 73.500,77.969 73.648,77.902 73.917 C 77.837 74.176,77.679 74.333,77.485 74.333 C 77.291 74.333,77.133 74.491,77.068 74.750 C 76.993 75.049,76.851 75.167,76.565 75.167 C 76.251 75.167,76.167 75.255,76.167 75.583 C 76.167 75.968,74.447 76.224,73.274 76.014 C 73.020 75.968,72.649 76.380,72.737 76.610 C 72.806 76.788,72.454 76.833,70.995 76.833 C 69.278 76.833,69.167 76.813,69.167 76.500 C 69.167 76.317,69.092 76.157,69.000 76.146 C 68.908 76.134,68.758 76.106,68.667 76.083 C 68.575 76.060,67.900 76.032,67.167 76.021 C 65.861 76.000,65.833 75.991,65.833 75.583 C 65.833 75.255,65.749 75.167,65.435 75.167 C 65.149 75.167,65.007 75.049,64.932 74.750 C 64.854 74.442,64.716 74.333,64.404 74.333 C 64.171 74.333,64.022 74.265,64.074 74.182 C 64.254 73.891,63.962 73.500,63.566 73.500 C 63.251 73.500,63.167 73.412,63.167 73.083 C 63.167 72.750,63.083 72.667,62.750 72.667 C 62.361 72.667,62.333 72.611,62.333 71.833 C 62.333 71.375,62.258 70.989,62.167 70.975 C 62.075 70.961,61.906 70.942,61.792 70.933 C 61.646 70.922,61.558 70.415,61.500 69.250 C 61.421 67.678,61.395 67.580,61.042 67.530 L 60.667 67.477 60.667 56.250 L 60.667 45.023 61.042 44.970 C 61.397 44.919,61.419 44.833,61.464 43.292 C 61.511 41.689,61.518 41.667,61.923 41.667 C 62.304 41.667,62.333 41.608,62.333 40.833 C 62.333 40.056,62.361 40.000,62.750 40.000 C 63.102 40.000,63.167 39.922,63.167 39.500 C 63.167 39.079,63.232 39.000,63.580 39.000 C 63.882 39.000,64.022 38.888,64.098 38.583 C 64.163 38.324,64.321 38.167,64.515 38.167 C 64.709 38.167,64.867 38.009,64.932 37.750 C 65.007 37.451,65.149 37.333,65.435 37.333 C 65.749 37.333,65.833 37.245,65.833 36.917 C 65.833 36.528,65.889 36.500,66.667 36.500 C 67.446 36.500,67.500 36.473,67.500 36.080 L 67.500 35.660 70.958 35.705 C 74.402 35.750,74.417 35.752,74.470 36.125 M208.539 61.833 C 208.539 62.154,208.573 62.285,208.615 62.125 C 208.657 61.965,208.657 61.702,208.615 61.542 C 208.573 61.381,208.539 61.512,208.539 61.833 " stroke="none" fill="#c494fc" fill-rule="evenodd"></path><path id="path2" d="" stroke="none" fill="#100e0fc" fill-rule="evenodd"></path><path id="path3" d="" stroke="none" fill="#100e0fc" fill-rule="evenodd"></path><path id="path4" d="" stroke="none" fill="#100e0fc" fill-rule="evenodd"></path></g></svg>